<svg xmlns="http://www.w3.org/2000/svg" viewBox="0 0 64 64" width="64" height="64">

  <circle cx="32" cy="32" r="32" fill="#4A6741"/>

  <g transform="translate(32,32)">
    <ellipse rx="3.5" ry="14" fill="#A85970" transform="rotate(0)    translate(0,-9)"/>
    <ellipse rx="3.5" ry="14" fill="#A85970" transform="rotate(45)   translate(0,-9)"/>
    <ellipse rx="3.5" ry="14" fill="#A85970" transform="rotate(90)   translate(0,-9)"/>
    <ellipse rx="3.5" ry="14" fill="#A85970" transform="rotate(135)  translate(0,-9)"/>
    <ellipse rx="3.5" ry="14" fill="#A85970" transform="rotate(180)  translate(0,-9)"/>
    <ellipse rx="3.5" ry="14" fill="#A85970" transform="rotate(225)  translate(0,-9)"/>
    <ellipse rx="3.5" ry="14" fill="#A85970" transform="rotate(270)  translate(0,-9)"/>
    <ellipse rx="3.5" ry="14" fill="#A85970" transform="rotate(315)  translate(0,-9)"/>
  </g>

  <g transform="translate(32,32)">
    <ellipse rx="3.2" ry="11" fill="#D4879A" transform="rotate(22.5) translate(0,-7)"/>
    <ellipse rx="3.2" ry="11" fill="#D4879A" transform="rotate(67.5) translate(0,-7)"/>
    <ellipse rx="3.2" ry="11" fill="#D4879A" transform="rotate(112.5) translate(0,-7)"/>
    <ellipse rx="3.2" ry="11" fill="#D4879A" transform="rotate(157.5) translate(0,-7)"/>
    <ellipse rx="3.2" ry="11" fill="#D4879A" transform="rotate(202.5) translate(0,-7)"/>
    <ellipse rx="3.2" ry="11" fill="#D4879A" transform="rotate(247.5) translate(0,-7)"/>
    <ellipse rx="3.2" ry="11" fill="#D4879A" transform="rotate(292.5) translate(0,-7)"/>
    <ellipse rx="3.2" ry="11" fill="#D4879A" transform="rotate(337.5) translate(0,-7)"/>
  </g>

  <g transform="translate(32,32)">
    <ellipse rx="3" ry="8" fill="#D6E8D4" transform="rotate(0)   translate(0,-5)"/>
    <ellipse rx="3" ry="8" fill="#D6E8D4" transform="rotate(90)  translate(0,-5)"/>
    <ellipse rx="3" ry="8" fill="#D6E8D4" transform="rotate(180) translate(0,-5)"/>
    <ellipse rx="3" ry="8" fill="#D6E8D4" transform="rotate(270) translate(0,-5)"/>
  </g>

  <circle cx="32" cy="32" r="5" fill="#FAF6F1"/>
  
  <circle cx="32" cy="32" r="1.5" fill="#4A6741"/>

</svg>
